<svg width="20" height="20" viewBox="0 0 20 20" fill="none" xmlns="http://www.w3.org/2000/svg">
<path d="M14.5521 19.7524C14.0931 19.7524 13.6311 19.6904 13.1751 19.5654C7.01011 17.8734 2.12909 12.9954 0.436095 6.83441C0.0510948 5.43341 0.262042 3.97341 1.03204 2.72541C1.80504 1.47141 3.0761 0.586403 4.5191 0.298403C5.4791 0.106403 6.4281 0.53441 6.9151 1.35541L8.47809 3.99539C9.23709 5.27739 8.85996 6.9284 7.61896 7.7544L6.4881 8.50641C7.5451 10.6764 9.32295 12.4594 11.4839 13.5154L12.2462 12.3784C13.0772 11.1394 14.7281 10.7684 16.0091 11.5314L18.6522 13.1074C19.4702 13.5954 19.8931 14.5504 19.7071 15.4824C19.4191 16.9254 18.5341 18.1964 17.2811 18.9694C16.4391 19.4874 15.5021 19.7524 14.5521 19.7524ZM4.97809 1.7504C4.92909 1.7504 4.87911 1.75541 4.83111 1.76541C3.77711 1.97641 2.86412 2.61139 2.31012 3.51239C1.76112 4.40239 1.61009 5.4414 1.88409 6.4364C3.43709 12.0894 7.91608 16.5664 13.5721 18.1184C14.5681 18.3914 15.604 18.2394 16.493 17.6914C17.393 17.1364 18.0291 16.2224 18.2361 15.1864C18.2981 14.8754 18.1571 14.5564 17.8831 14.3934L15.241 12.8174C14.646 12.4634 13.878 12.6364 13.492 13.2114L12.377 14.8764C12.177 15.1744 11.7911 15.2884 11.4651 15.1504C8.50215 13.9114 6.09113 11.4954 4.85113 8.5214C4.71313 8.1894 4.82899 7.8074 5.12799 7.6084L6.78912 6.50339C7.36512 6.12039 7.54007 5.35339 7.18707 4.75839L5.62408 2.11939C5.48708 1.88739 5.23909 1.7504 4.97809 1.7504Z" fill="#25314C"/>
</svg>
